<?xml version="1.0" encoding="utf-8"?>
<!-- Generator: Adobe Illustrator 16.0.5, SVG Export Plug-In . SVG Version: 6.00 Build 0)  -->
<!DOCTYPE svg PUBLIC "-//W3C//DTD SVG 1.1//EN" "http://www.w3.org/Graphics/SVG/1.1/DTD/svg11.dtd">
<svg version="1.1" id="Layer_1" xmlns="http://www.w3.org/2000/svg" xmlns:xlink="http://www.w3.org/1999/xlink" x="0px" y="0px"
	 width="239.999px" height="241.814px" viewBox="80 79.093 239.999 241.814" enable-background="new 80 79.093 239.999 241.814"
	 xml:space="preserve">
<g>
	<path fill="#DBEEEC" d="M282.882,199.977c0-19.851-7.017-36.733-21.168-50.881c-11.533-11.648-25.202-18.434-40.776-20.45
		c-3.33-0.36-6.663-0.593-9.99-0.593h-0.116l-16.886,1.778c-0.353,0.118-0.714,0.242-1.065,0.365
		c-7.73,1.896-14.861,4.989-21.519,9.511c-3.45,1.421-6.658,3.203-9.871,5.227c-0.232,0.119-0.473,0.237-0.708,0.475
		c-1.074,0.594-2.024,1.306-3.098,2.138c-0.119,0-0.119,0.125-0.238,0.237c-0.354,0.124-0.708,0.361-0.95,0.713
		c-0.354,0.239-0.714,0.48-1.068,0.714c-2.254,1.9-4.4,3.924-6.542,5.944c-3.686,3.57-6.777,7.491-9.386,11.416l0,0
		c-3.217,4.752-5.712,9.752-7.614,14.98c-1.071,3.212-2.022,6.422-2.614,9.867c-0.955,4.634-1.43,9.51-1.43,14.624
		c0,1.43,0.119,2.86,0.119,4.4c4.638-1.188,9.276-2.5,13.796-4.04c-0.239-2.5-0.477-5.236-0.477-7.847
		c0-15.46,4.279-29.133,12.839-41.019v-0.118c0.242-0.475,0.597-0.951,0.833-1.307l0,0c1.067-1.31,2.14-2.619,3.33-3.925
		c6.42,35.905,20.088,69.549,40.783,101.176c2.61,3.92,5.225,7.728,7.961,11.529c0.475,0.723,0.953,1.426,1.541,2.023
		c3.572,0.595,8.205,0.595,13.558-0.237c-0.475-0.595-1.073-1.189-1.668-1.788c-3.446-3.684-6.775-7.608-9.985-11.529
		c-4.159-4.994-8.08-10.104-11.77-15.336c11.177-4.521,21.996-10.223,32.457-16.882c-1.306-3.568-2.739-7.132-4.159-10.588
		c-10.463,7.97-21.516,14.746-33.169,20.335c-5.352-8.202-10.227-16.761-14.745-25.563c6.299-2.499,12.367-5.351,18.309-8.559
		c5.946-3.326,11.889-7.015,17.478-10.936c-2.021-3.684-4.042-7.252-6.305-10.941c-10.459,8.564-21.513,15.812-32.926,21.877
		c-0.245,0-0.359,0.119-0.475,0.237c-6.656-14.264-12.13-29.481-16.408-45.415c0.597-0.832,1.31-1.545,2.139-2.381
		c0.121-0.233,0.361-0.474,0.594-0.589c0.357-0.238,0.594-0.713,0.955-0.95c2.614-2.738,5.466-5.115,8.319-7.257
		c0.359-0.238,0.716-0.357,1.191-0.48l8.319-2.485c0.238-0.124,0.475-0.124,0.715-0.247c0.235,0,0.357,0,0.594-0.12
		c0,0,0.117,0,0.238,0c0.475-0.115,0.95-0.233,1.545-0.351c30.791,34.954,51.72,74.424,62.654,118.532
		c4.159-4.282,6.421-7.728,6.658-10.223c-3.445-10.936-7.488-21.162-12.005-30.439c7.371-5.346,14.742-11.287,21.762-17.831
		c0.467-0.475,2.043-1.851,2.397-2.326c-0.194-5.283-1.16-9.589-4.495-15.059c-5.228,6.183-11.462,12.033-17.17,17.385
		c-2.618,2.499-5.352,4.875-7.965,7.133c-4.398-7.85-8.915-15.454-13.912-22.832c8.68-6.653,16.889-14.262,24.849-22.703
		c-2.852-4.043-6.301-7.256-10.573-9.39c-6.901,7.847-14.275,15.094-21.761,21.638c-9.162-12.132-19.146-23.425-30.202-33.885
		c3.089-0.594,6.064-0.951,9.277-1.074l0,0c1.54-0.119,2.968-0.119,4.515-0.119l0,0c8.326,0,16.169,1.192,23.424,3.687
		c0.471,0.119,0.951,0.357,1.42,0.48c9.631,3.445,18.196,9.03,26.041,16.876c14.029,14.033,21.046,31.029,21.046,50.889
		c0,18.306-5.95,34.118-17.955,47.553c-1.069,1.074-2.021,2.144-3.088,3.208c-2.733,2.74-5.589,5.237-8.56,7.38
		c-8.085,3.203-16.887,4.866-26.395,4.866c-6.303,0-12.367-0.711-18.074-2.138c-10.346-2.614-19.86-7.489-28.296-14.737
		c-1.547-1.43-3.088-2.737-4.515-4.287c-0.239-0.112-0.475-0.351-0.598-0.588c9.039-1.673,17.836-3.926,26.513-6.9
		c-1.306-2.136-2.618-4.516-3.924-6.772c-26.989,11.173-56.83,16.044-89.522,14.741c16.757,2.257,33.172,2.733,48.862,1.426
		c0.711,0.712,1.309,1.549,2.023,2.381c1.069,1.064,2.02,2.139,3.089,3.208c8.206,8.203,17.24,13.909,27.345,17.356
		c0.121,0.123,0.121,0.123,0.238,0.123c5.95,2.02,12.247,3.208,18.786,3.56c1.545,0,3.089,0.125,4.518,0.125
		c8.323,0,16.048-1.312,23.301-3.685c0.121,0,0.239,0,0.239-0.123c5.59-1.901,10.94-4.515,15.812-7.85
		c6.538-2.729,12.484-6.536,18.078-11.292c1.54-1.421,3.084-2.738,4.51-4.281C275.866,236.713,282.882,219.833,282.882,199.977z"/>
	<path fill="#DBEEEC" d="M131.888,230.412c1.787,4.88,4.042,9.515,6.896,13.91c5.468-1.064,10.817-2.257,16.169-3.56
		c-5.706-7.732-9.63-16.172-11.65-25.207c9.51-1.786,18.781-4.163,27.7-7.252c-1.072-2.499-2.138-5.114-3.213-7.613
		c-21.517,10.108-44.817,15.936-69.791,17.718c10.588,0.356,20.811,0.118,30.678-0.951c0.235,1.069,0.359,2.144,0.596,3.208
		C129.867,223.996,130.817,227.323,131.888,230.412z"/>
	<path fill="#AA0F33" d="M261.327,118.369c5.301-7.412,20.191-15.201,30.686-18.701l2.037,1.579l-13.411,19.994l-28.766,48.399
		l-18.534,37.648l-4.26,9.888c-0.549,1.592-1.207,3.506-2.895,4.916c-2.271,1.604-8.102,3.549-10.822,4.456
		c-6.218,2.075-7.577,2.529-9.149,2.348c-2.24-0.24-3.804-1.694-5.756-3.018c-6.223-4.415-18.036-14.584-20.155-20.933
		c-0.719-2.159,0.885-3.823,3.029-5.809c3.445-3.266,8.554-7.369,13.606-9.054c3.887-1.297,4.996,0.732,6.839,2.375l5.878,4.671
		c0.921,0.821,3.855,3.793,5.993,3.081c1.942-0.648,3.299-4.346,3.78-5.494l30.355-58.525L261.327,118.369z"/>
	<path fill="#005280" d="M113.998,191.93l0.313,21.603l-5.938,0.086l-0.084-5.766l-22.121,0.32l0.083,5.767l-5.939,0.086L80,192.422
		l5.938-0.086l0.083,5.767l22.121-0.32l-0.083-5.767L113.998,191.93z"/>
	<path fill="#005280" d="M122.217,167.349c-2.303,5.574-5.557,9.408-9.762,11.506c-4.205,2.098-8.894,2.08-14.064-0.057
		c-4.986-2.06-8.285-5.346-9.896-9.857c-1.612-4.511-1.267-9.554,1.036-15.126c0.611-1.479,1.229-2.783,1.85-3.91
		c0.621-1.126,1.288-2.174,2-3.146c0.55-0.765,1.215-1.571,1.994-2.419c0.777-0.846,1.426-1.522,1.947-2.028l7.51,3.102
		l-0.392,0.948c-0.529,0.309-1.162,0.709-1.9,1.201c-0.738,0.494-1.507,1.082-2.306,1.764c-0.797,0.684-1.566,1.481-2.307,2.393
		c-0.739,0.91-1.343,1.934-1.81,3.065c-0.557,1.347-0.889,2.657-0.997,3.926c-0.109,1.271,0.067,2.594,0.525,3.971
		c0.411,1.261,1.172,2.467,2.286,3.619c1.113,1.152,2.598,2.109,4.452,2.876c1.938,0.801,3.696,1.167,5.276,1.098
		c1.579-0.068,2.98-0.433,4.203-1.096c1.194-0.636,2.209-1.477,3.049-2.522s1.503-2.16,1.991-3.343
		c0.508-1.23,0.825-2.472,0.949-3.727c0.125-1.252,0.131-2.351,0.021-3.293c-0.083-1.007-0.215-1.92-0.398-2.735
		c-0.182-0.815-0.349-1.526-0.502-2.136l0.351-0.848l7.421,3.066c-0.014,0.793-0.036,1.709-0.063,2.749
		c-0.028,1.041-0.114,2.086-0.255,3.137c-0.214,1.275-0.451,2.453-0.71,3.532C123.45,164.139,122.953,165.569,122.217,167.349z"/>
	<path fill="#005280" d="M130.494,131.91l-4.62-11.358l10.869,5.684L130.494,131.91z M135.784,144.781l-2.785-6.773l9.572-8.694
		l6.476,3.421l7.618-6.919l-32.924-16.03l-8.166,7.417l12.796,34.31L135.784,144.781z"/>
	<path fill="#005280" d="M194.897,113.359l-9.278,2.83l-21.839-18.1l6.911,22.654l-8.81,2.688l-9.92-32.522l11.852-3.616
		l18.043,14.882l-5.688-18.651l8.81-2.687L194.897,113.359z"/>
	<path fill="#005280" d="M238.631,117.781l-9.595-1.42l-11.974-25.714l-3.466,23.43l-9.111-1.349l4.979-33.635l12.257,1.814
		l9.923,21.179l2.855-19.289l9.11,1.349L238.631,117.781z"/>
	<path fill="#005280" d="M121.665,272.38l7.654-2.594l-3.972,7.062L121.665,272.38z M124.139,288.025l10.306-19.479l-2.875-3.487
		l-20.938,6.574l2.893,3.511l4.66-1.581l5.373,6.521l-2.387,4.341L124.139,288.025z"/>
	<path fill="#005280" d="M141.434,289.568c0.481-0.926,0.842-2.313-0.698-3.557c-2.598-2.097-4.774,0.6-5.345,1.308
		c-1.962,2.431-2.188,4.403-0.372,5.868c1.838,1.484,3.369,0.2,4.042-0.352l2.693,3.014c-2.95,2.291-5.882,2.114-8.895-0.315
		c-4.92-3.971-2.441-8.688-0.889-10.61c2.141-2.653,6.1-4.97,10.628-1.315c3.793,3.062,3.138,6.037,2.366,7.935L141.434,289.568z"/>
	<path fill="#005280" d="M155.895,298.691c0.321-0.993,0.447-2.423-1.277-3.393c-2.909-1.638-4.608,1.383-5.055,2.175
		c-1.533,2.722-1.428,4.705,0.605,5.849c2.06,1.16,3.356-0.359,3.928-1.016l3.155,2.524c-2.53,2.749-5.451,3.06-8.824,1.163
		c-5.509-3.101-3.846-8.164-2.634-10.315c1.672-2.971,5.192-5.911,10.263-3.058c4.248,2.392,4.094,5.436,3.648,7.432
		L155.895,298.691z"/>
	<path fill="#005280" d="M159.045,310.922l5.413-13.684l3.488,1.38l-0.763,1.93l0.055,0.021c1.319-1.006,2.481-1.615,4.102-0.974
		c0.825,0.327,1.699,1.009,2.211,1.639l-2.435,2.703c-0.229-0.304-0.814-0.994-1.528-1.276c-2.445-0.967-3.603,1.721-5.108,5.524
		l-1.671,4.228L159.045,310.922z"/>
	<path fill="#005280" d="M176.755,308.017c0.438-1.882,1.921-3.064,3.784-2.6c0.602,0.15,2.783,0.928,2.092,4.063L176.755,308.017z
		 M181.448,313.256c-0.366,0.612-1.153,1.82-2.988,1.363c-2.236-0.559-2.735-2.586-2.367-4.309l9.86,2.456
		c1.137-4.196,0.667-8.909-4.922-10.302c-4.701-1.171-7.743,1.994-8.704,5.854c-0.295,1.186-0.416,2.648-0.101,4.19
		c0.766,3.646,4.164,4.667,5.454,4.988c4.93,1.228,7.001-1.826,7.536-2.63L181.448,313.256z"/>
	<path fill="#005280" d="M200.511,312.895c-0.182,2.122-0.657,3.166-1.706,3.988c-0.794,0.616-1.689,0.682-2.249,0.635
		c-1.383-0.119-3.128-1.209-2.818-4.833c0.14-1.643,0.788-4.694,3.76-4.438C199.382,308.407,200.764,309.922,200.511,312.895z
		 M203.856,320.907l1.736-20.266l-4.031-0.346l-0.625,7.303c-0.534-0.703-1.798-2.207-4.27-2.419
		c-3.386-0.291-6.618,1.8-7.061,6.979c-0.451,5.266,2.422,8.078,5.718,8.359c0.913,0.077,3.146-0.044,4.893-2.089l0.058,0.004
		l-0.185,2.151L203.856,320.907z"/>
	<path fill="#005280" d="M208.947,306.044l4.046-0.129l0.466,14.706l-4.045,0.13L208.947,306.044z M208.77,300.422l4.044-0.129
		l0.114,3.604l-4.044,0.13L208.77,300.422z"/>
	<path fill="#005280" d="M224.427,307.933l-2.729,0.311l0.672,5.898c0.238,2.089,0.314,2.767,1.43,2.64
		c0.529-0.061,0.981-0.255,1.458-0.509l0.114-0.042l0.692,2.95c-1.259,0.688-2.691,0.907-3.103,0.955
		c-1.232,0.139-2.862-0.073-3.574-1.108c-0.603-0.847-0.76-1.715-1.014-3.946l-0.726-6.378l-1.851,0.21l-0.35-3.076l1.85-0.212
		l-0.331-2.907l3.79-2.746l0.592,5.193l2.729-0.31L224.427,307.933z"/>
	<path fill="#005280" d="M231.244,309.686c-0.479-1.871,0.292-3.603,2.16-4.05c0.603-0.145,2.896-0.459,3.729,2.643L231.244,309.686
		z M237.821,312.174c-0.043,0.711-0.186,2.147-2.024,2.586c-2.24,0.536-3.617-1.033-4.085-2.731l9.884-2.364
		c-0.924-4.247-3.512-8.216-9.114-6.875c-4.712,1.126-5.954,5.338-5.028,9.205c0.283,1.188,0.85,2.541,1.842,3.767
		c2.359,2.882,5.846,2.224,7.14,1.915c4.941-1.183,5.371-4.848,5.476-5.809L237.821,312.174z"/>
	<path fill="#005280" d="M254.577,303.023c0.825,1.965,0.891,3.109,0.344,4.324c-0.416,0.915-1.178,1.39-1.695,1.606
		c-1.278,0.537-3.331,0.384-4.741-2.969c-0.639-1.518-1.485-4.521,1.265-5.678C251.492,299.575,253.42,300.274,254.577,303.023z
		 M261.265,308.562l-7.886-18.75l-3.729,1.568l2.841,6.757c-0.798-0.373-2.617-1.117-4.904-0.156
		c-3.132,1.316-5.021,4.67-3.007,9.462c2.05,4.869,5.899,6.024,8.949,4.741c0.845-0.355,2.766-1.501,3.36-4.124l0.054-0.022
		l0.839,1.99L261.265,308.562z"/>
	<path fill="#005280" d="M268.034,284.618l2.602-2.091c2.234-1.795,2.648-2.127,3.555-2.272c0.905-0.146,1.636,0.29,2.15,0.933
		c0.374,0.464,1.076,1.576,0.227,2.877c-0.415,0.662-1.819,1.791-2.831,2.605l-2.465,1.979L268.034,284.618z M275.303,300.46
		l3.316-2.663l-5.32-6.621l0.668-0.537c2.234-1.794,2.69-1.65,6.988-0.403l5.171,1.531l3.983-3.2l-4.493-1.492
		c-3.704-1.215-4.811-1.272-6.798-0.915l-0.036-0.044c0.591-0.585,1.071-1.26,1.45-1.966c1.097-1.938,0.768-4.188-0.62-5.914
		c-1.246-1.551-3.486-2.738-5.951-1.889c-0.631,0.251-1.633,0.656-4.097,2.635l-7,5.625L275.303,300.46z"/>
	<path fill="#005280" d="M288.724,276.829c-1.506-1.209-1.931-3.056-0.704-4.535c0.395-0.478,2.04-2.107,4.568-0.128
		L288.724,276.829z M295.478,274.867c0.393,0.593,1.142,1.827-0.064,3.284c-1.471,1.774-3.515,1.348-4.908,0.27l6.481-7.825
		c-3.29-2.841-7.743-4.458-11.417-0.021c-3.09,3.731-1.553,7.843,1.51,10.38c0.939,0.778,2.207,1.521,3.734,1.904
		c3.618,0.886,6.011-1.735,6.858-2.759c3.241-3.913,1.382-7.101,0.89-7.932L295.478,274.867z"/>
	<path fill="#005280" d="M299.91,263.152c-0.977-0.523-3.754-2.317-2.301-5.023c1.313-2.447,3.95-1.835,5.604-0.947
		c3.379,1.813,2.706,4.27,2.202,5.206C304.186,264.678,301.687,264.107,299.91,263.152z M305.8,270.439
		c3.596,2.132,6.109-0.81,7.786-3.933c3.158-5.883,0.461-8.002-3.144-9.938l-11.637-6.248l-1.79,3.331l1.803,0.967l-0.028,0.053
		c-0.785,0.081-2.955,0.459-4.297,2.958c-1.188,2.211-1.708,6.425,3.648,9.301c3.68,1.976,7.704,1.387,9.547-2.05
		c0.866-1.613,0.798-3.527,0.036-5.11l0.028-0.052l1.902,1.021c1.502,0.806,2.827,1.519,1.235,4.485
		c-0.49,0.911-0.956,1.299-1.086,1.361c-0.654,0.319-1.194,0.063-1.335,0.021L305.8,270.439z"/>
	<path fill="#005280" d="M299.994,246.605l1.322-3.825l13.907,4.804l-1.32,3.825L299.994,246.605z M294.678,244.77l1.32-3.825
		l3.411,1.177l-1.322,3.826L294.678,244.77z"/>
	<path fill="#005280" d="M312.937,237.716c2.012-0.122,2.668-1.536,2.896-2.814c0.062-0.35,0.486-2.884-1.08-3.164
		c-0.838-0.149-1.159,0.514-1.521,1.409c-1.766,4.396-3.117,7.605-6.557,6.991c-3.329-0.595-3.883-3.963-3.314-7.133
		c0.64-3.576,1.99-5.646,5.025-6.005l-0.004,3.9c-1.794,0.19-2.14,1.809-2.266,2.508c-0.119,0.669-0.46,2.739,0.715,2.947
		c0.42,0.074,0.784-0.189,1.029-0.596c0.416-0.706,1.097-2.265,1.497-3.214c1.094-2.566,2.388-5.455,5.578-4.887
		c2.265,0.404,4.526,2.759,3.639,7.733c-0.26,1.452-0.941,3.822-2.764,5.297c-1.182,0.96-2.413,1.07-2.998,1.114L312.937,237.716z"
		/>
	<path fill="#005280" d="M308.071,215.862l-0.029,2.747l5.937,0.064c2.103,0.021,2.784,0.03,2.797-1.093
		c0.006-0.532-0.131-1.005-0.325-1.51l-0.028-0.119l3.017-0.322c0.526,1.335,0.565,2.784,0.561,3.197
		c-0.014,1.241-0.428,2.831-1.542,3.41c-0.914,0.492-1.795,0.542-4.039,0.517l-6.419-0.069l-0.021,1.86l-3.096-0.033l0.02-1.86
		l-2.926-0.032l-2.256-4.102l5.228,0.057l0.029-2.747L308.071,215.862z"/>
	<path fill="#005280" d="M319.401,211.41l-14.603,1.814l-0.463-3.723l2.058-0.257l-0.006-0.058
		c-1.516-0.675-2.608-1.402-2.824-3.132c-0.108-0.879,0.07-1.973,0.377-2.727l3.541,0.842c-0.158,0.347-0.482,1.19-0.388,1.953
		c0.325,2.609,3.238,2.336,7.299,1.83l4.511-0.559L319.401,211.41z"/>
	<path fill="#005280" d="M308.751,191.245c1.276-0.396,2.17-0.673,3.103-0.065c0.673,0.441,1.288,1.085,1.567,1.988
		c0.464,1.496-0.474,2.498-1.262,2.742c-1.303,0.403-2.164-1.031-2.518-1.694c-0.107-0.153-0.594-1.053-0.682-1.243
		c-0.471-0.844-0.683-1.149-0.94-1.501L308.751,191.245z M306.614,197.596c-0.784-0.035-1.966-0.102-2.55-1.993
		c-0.822-2.652,0.236-2.98,1.159-3.266l0.38-0.118c0.534,0.669,1.006,1.42,2.059,3.476c1.009,1.914,2.655,5.021,6.102,3.954
		c2.442-0.757,3.558-3.205,2.648-6.14c-0.734-2.37-2.311-3.428-3.28-3.963l0.69-0.46c0.371-0.239,0.535-0.382,0.699-0.526
		l-1.181-3.809c-0.99,0.925-1.555,1.316-3.372,1.973c-0.78,0.272-4.596,1.392-5.465,1.661c-2.522,0.782-5.282,1.667-3.376,7.819
		c1.347,4.346,3.493,5.134,5.947,5.085L306.614,197.596z"/>
	<path fill="#005280" d="M311.051,179.943l-13.106,6.69l-1.706-3.341l1.848-0.943l-0.027-0.053
		c-1.653-0.117-2.929-0.428-3.721-1.979c-0.403-0.79-0.609-1.879-0.577-2.69l3.614-0.418c-0.029,0.38-0.046,1.285,0.302,1.968
		c1.195,2.341,3.842,1.09,7.485-0.77l4.048-2.066L311.051,179.943z"/>
</g>
</svg>
