<svg width="15" height="19" viewBox="0 0 15 19" xmlns="http://www.w3.org/2000/svg"><title>1492F1CF-BB0E-4A37-8A46-7D7A361C3C82</title><path d="M8.768 17.663a6.521 6.521 0 0 1-.598.087v-.208h.601l-.003.121zM6.969 16.32V19h.601a7.264 7.264 0 0 0 2.892-.594 7.412 7.412 0 0 0 2.362-1.618A7.609 7.609 0 0 0 15 11.447V7.553a7.605 7.605 0 0 0-2.176-5.341A7.396 7.396 0 0 0 10.462.594 7.28 7.28 0 0 0 7.57 0h-.139a7.28 7.28 0 0 0-2.892.594c-.885.38-1.68.925-2.362 1.618A7.606 7.606 0 0 0 0 7.553v3.618c0 1.806 1.446 3.275 3.224 3.275h.6V7.895h-.6c-.766 0-1.469.272-2.022.726V7.553c0-1.691.648-3.282 1.824-4.477a6.135 6.135 0 0 1 4.405-1.855h.139c1.664 0 3.228.658 4.405 1.855a6.34 6.34 0 0 1 1.824 4.477v1.068a3.176 3.176 0 0 0-2.021-.726h-.601v6.551h.601a3.17 3.17 0 0 0 1.454-.352 6.354 6.354 0 0 1-1.257 1.831 6.235 6.235 0 0 1-1.998 1.366l.02-.97H6.969v-.001z" fill="#FFF" fill-rule="evenodd"/></svg>