<?xml version="1.0" encoding="UTF-8" standalone="no"?>
<svg
   xmlns:dc="http://purl.org/dc/elements/1.1/"
   xmlns:cc="http://creativecommons.org/ns#"
   xmlns:rdf="http://www.w3.org/1999/02/22-rdf-syntax-ns#"
   xmlns:svg="http://www.w3.org/2000/svg"
   xmlns="http://www.w3.org/2000/svg"
   xmlns:sodipodi="http://sodipodi.sourceforge.net/DTD/sodipodi-0.dtd"
   xmlns:inkscape="http://www.inkscape.org/namespaces/inkscape"
   id="Layer_1"
   viewBox="0 0 432 288"
   version="1.1"
   sodipodi:docname="new_domains_logo.svg"
   inkscape:version="0.92.4 (5da689c313, 2019-01-14)">
  <metadata
     id="metadata867">
    <rdf:RDF>
      <cc:Work
         rdf:about="">
        <dc:format>image/svg+xml</dc:format>
        <dc:type
           rdf:resource="http://purl.org/dc/dcmitype/StillImage" />
      </cc:Work>
    </rdf:RDF>
  </metadata>
@@ -34,74 +37,136 @@
@@ -34,74 +37,136 @@
     inkscape:pageshadow="2"
     inkscape:window-width="1920"
     inkscape:window-height="1017"
     id="namedview865"
     showgrid="false"
     inkscape:zoom="2.9513889"
     inkscape:cx="216"
     inkscape:cy="144"
     inkscape:window-x="-8"
     inkscape:window-y="-8"
     inkscape:window-maximized="1"
     inkscape:current-layer="Layer_1" />
  <defs
     id="defs844">
    <style
       id="style842">.cls-1,.cls-2{fill:#f05224;}.cls-3{fill:#26225b;}.cls-2{font-family:GillSans-SemiBold, 'Gill Sans';font-size:33px;letter-spacing:.34em;}</style>
  </defs>
  <g
     id="g854"
     transform="matrix(1.4989221,0,0,1.4989221,-103.74239,-55.545512)">
  <path
     class="cls-3"
       d="m 120.53,101.62 c -5.46,0 -10.44,0.96 -14.95,2.87 -4.51,1.91 -8.68,4.86 -12.5,8.85 l 0.55,-9.52 H 73.97 v 114.52 h 19.66 v -28 c 0,-2.41 -0.04,-4.22 -0.12,-5.43 -0.08,-1.21 -0.22,-2.36 -0.43,-3.46 4.19,3.83 8.51,6.65 12.94,8.45 4.43,1.81 9.32,2.71 14.67,2.71 12.38,0 22.88,-4.42 31.5,-13.25 8.62,-8.83 12.94,-19.52 12.94,-32.05 0,-12.53 -4.29,-23.61 -12.86,-32.45 -8.57,-8.83 -19.15,-13.25 -31.74,-13.25 z m 16.36,63.55 c -4.98,4.98 -11.19,7.47 -18.64,7.47 -7.45,0 -12.95,-2.45 -17.62,-7.35 -4.67,-4.9 -7,-11.1 -7,-18.6 0,-7.5 2.36,-13.16 7.08,-17.93 4.72,-4.77 10.67,-7.16 17.85,-7.16 7.18,0 13.48,2.43 18.41,7.28 4.93,4.85 7.39,10.89 7.39,18.13 0,7.24 -2.49,13.19 -7.47,18.17 z"
       id="path846"
     inkscape:connector-curvature="0"
     style="fill:#26225b" />
  <path
     class="cls-3"
       d="m 341.91,105.31 c -3.43,1.78 -6.7,4.61 -9.79,8.49 v -9.99 h -18.88 v 86.52 h 20.13 v -44.12 c 0,-9.18 1.55,-15.46 4.64,-18.84 3.09,-3.38 8.47,-5.39 16.12,-6.02 v -18.8 c -4.72,0.05 -8.8,0.97 -12.23,2.75 z"
       id="path848"
     inkscape:connector-curvature="0"
     style="fill:#26225b" />
  <rect
     class="cls-3"
       x="277.45001"
       y="103.82"
     width="19.66"
     height="86.519997"
       id="rect850"
     style="fill:#26225b" />
  <path
     class="cls-3"
       d="m 241.98,115.3 c -3.78,-4.67 -7.93,-8.11 -12.47,-10.34 -4.54,-2.23 -9.61,-3.34 -15.22,-3.34 -12.69,0 -23.28,4.34 -31.78,13.02 -8.5,8.68 -12.74,19.36 -12.74,32.05 0,12.69 4.3,23.73 12.9,32.48 8.6,8.76 19.3,13.14 32.09,13.14 6.34,0 11.73,-1.14 16.16,-3.42 4.43,-2.28 8.11,-5.78 11.05,-10.5 l -0.31,11.95 h 19.51 v -86.52 h -19.66 z m -7.95,49.4 c -4.88,4.88 -10.72,7.31 -17.54,7.31 -7.45,0 -13.65,-2.43 -18.6,-7.28 -4.96,-4.85 -7.43,-10.97 -7.43,-18.37 0,-6.97 2.44,-12.85 7.31,-17.62 4.88,-4.77 10.8,-7.16 17.78,-7.16 7.34,0 13.47,2.46 18.4,7.39 4.93,4.93 7.39,11.04 7.39,18.33 0,6.71 -2.44,12.5 -7.31,17.38 z"
       id="path852"
     inkscape:connector-curvature="0"
     style="fill:#26225b" />
  </g>
  <path
     class="cls-1"
     d="m 289.43989,40.670303 c 0.0749,-0.794429 0.14991,-1.603847 0.23982,-2.398276 0.35976,-3.432532 1.21415,-6.745149 2.53319,-9.922865 3.37258,-8.0642 8.88862,-14.239759 16.47316,-18.5716448 4.22696,-2.4132647 8.76869,-3.912187 13.61019,-4.4667881 9.02353,-1.0192676 17.35754,0.8693744 24.83716,6.1156029 3.6274,2.548167 6.47534,5.815818 8.81366,9.548133 2.44324,3.882208 4.27193,8.049213 5.78584,12.351118 1.37901,3.927178 2.66808,7.884331 4.04709,11.811507 0.94432,2.683071 1.99358,5.321174 3.38757,7.794397 0.89935,1.603846 1.99357,3.072789 3.34259,4.331883 1.34903,1.274086 2.99783,1.933611 4.79655,2.203417 2.18843,0.329763 4.37686,0.4197 6.58027,0.104922 2.86293,-0.419697 5.47107,-1.513911 7.7794,-3.252662 3.44752,-2.578145 5.75587,-5.950721 6.74516,-10.162692 1.04925,-4.436808 0.37473,-8.64878 -1.97859,-12.545978 -2.68306,-4.436809 -6.58025,-7.299751 -11.69158,-8.334007 -3.37257,-0.689504 -6.71517,-0.494644 -9.90788,0.98929 -1.46894,0.689501 -2.71305,1.67879 -3.8822,2.787992 -0.11992,0.104923 -0.23983,0.22484 -0.38972,0.374732 -2.3533,-6.415386 -5.39614,-12.396085 -9.50318,-17.897132 0.83941,-0.584578 1.64881,-1.199136 2.48822,-1.7387478 3.68734,-2.3682966 7.73444,-3.7473057 12.06632,-4.3618639 2.83296,-0.4047086 5.66592,-0.5096335 8.51389,-0.2997839 4.42181,0.329763 8.64879,1.3939965 12.65088,3.2826392 8.13916,3.8372414 14.1948,9.8029514 18.16695,17.8671514 1.70876,3.477501 2.84796,7.14986 3.3426,11.002089 0.29978,2.293352 0.56961,4.571712 0.43468,6.895042 -0.22483,3.942166 -1.00427,7.779408 -2.44324,11.451766 -3.22269,8.184115 -8.66376,14.509566 -16.21834,18.976354 -4.00212,2.368298 -8.31902,3.912187 -12.92071,4.601691 -6.7002,1.019269 -13.22048,0.329765 -19.48598,-2.32333 -6.05565,-2.563156 -10.91216,-6.580266 -14.50958,-12.096301 -2.23339,-3.417542 -4.01712,-7.029945 -5.4111,-10.852195 -1.33405,-3.64238 -2.53318,-7.31474 -3.79228,-10.972111 -1.21412,-3.522467 -2.42826,-7.044935 -4.12204,-10.372543 -0.91434,-1.783717 -2.05353,-3.417541 -3.47749,-4.826529 -1.28908,-1.289071 -2.83296,-2.068513 -4.61668,-2.413263 -2.42825,-0.464667 -4.88649,-0.569591 -7.34472,-0.239828 -2.92289,0.389721 -5.54601,1.513911 -7.88433,3.282639 -3.59741,2.71305 -5.96571,6.265494 -6.8201,10.702305 -1.01927,5.216249 0.25482,9.922865 3.56744,14.05989 2.62312,3.282639 6.02566,5.426097 10.16269,6.235516 3.68735,0.734472 7.31474,0.479653 10.73229,-1.259094 1.22912,-0.629547 2.27837,-1.498924 3.19269,-2.53318 0.09,-0.104922 0.17988,-0.194859 0.31477,-0.329763 2.18843,6.490333 5.15632,12.50101 9.47319,17.852164 -0.3897,0.299783 -0.76443,0.584579 -1.13918,0.869376 -3.82224,2.773005 -8.09418,4.42182 -12.74084,5.17128 -3.08777,0.494644 -6.20553,0.629547 -9.32329,0.38972 -5.87578,-0.464666 -11.34684,-2.218406 -16.35324,-5.336162 -8.30401,-5.171283 -13.85004,-12.471034 -16.62305,-21.854286 -0.74946,-2.563157 -1.16917,-5.186271 -1.33404,-7.854354 -0.0151,-0.314773 -0.10495,-0.644535 -0.16488,-0.959308 z"
     id="path856"
     inkscape:connector-curvature="0"
     style="fill:#f05224;stroke-width:1.49892223" />
  <rect
     class="cls-3"
     x="7.117897"
     y="270.17029"
     width="29.483797"
     height="10.192669"
     id="rect858"
     style="fill:#26225b;stroke-width:1.49892223" />
  <text
     class="cls-2"
     id="text862"
     x="61.094082"
     y="280.04813"
     style="font-size:49.46443176px;font-family:GillSans-SemiBold, 'Gill Sans';letter-spacing:0.34em;fill:#f05224;stroke-width:1.49892223">
    <tspan
       x="61.094082"
       y="280.04813"
       id="tspan860"
       style="stroke-width:1.49892223">DOMAINS</tspan>
  </text>
</svg>
