<svg xmlns="http://www.w3.org/2000/svg" width="30" height="30" viewBox="0 0 30 30">
    <g fill="none" fill-rule="evenodd">
        <path fill="#C0C0C0" d="M15.002 30C6.716 30 0 23.285 0 15S6.716 0 15.002 0c8.285 0 15.002 6.715 15.002 15s-6.717 15-15.002 15"/>
        <path fill="#FFF" fill-rule="nonzero" d="M22.84 11.873s-.156-1.078-.636-1.552c-.608-.623-1.29-.626-1.603-.663-2.239-.158-5.597-.158-5.597-.158h-.008s-3.358 0-5.597.158c-.313.037-.994.04-1.603.663-.48.474-.636 1.552-.636 1.552S7 13.138 7 14.404v1.187c0 1.265.16 2.53.16 2.53s.156 1.078.636 1.553c.609.623 1.408.603 1.764.669 1.28.12 5.44.157 5.44.157s3.362-.005 5.601-.163c.313-.037.995-.04 1.603-.663.48-.474.636-1.552.636-1.552s.16-1.266.16-2.531v-1.187c0-1.266-.16-2.531-.16-2.531zm-9.492 5.155v-4.394l4.323 2.205-4.323 2.19z"/>
    </g>
</svg>
