<svg width="30" height="30" viewBox="0 0 30 30" xmlns="http://www.w3.org/2000/svg"><title>F4B65BDA-C5F1-4E23-88A6-DD3050D6F9E5</title><g fill="none" fill-rule="evenodd"><path d="M-1070-1359H370V48h-1440z" fill="#FFF"/><path d="M-1070-399H370V48h-1440z" fill="#FFF" opacity=".599"/><path d="M22.654 8.934c-.61.388-1.286.67-2.005.822-.575-.659-1.395-1.07-2.304-1.07-1.743 0-3.156 1.517-3.156 3.388 0 .265.028.525.082.772-2.623-.14-4.95-1.49-6.506-3.54a3.56 3.56 0 0 0-.427 1.704c0 1.175.557 2.213 1.404 2.82a2.978 2.978 0 0 1-1.43-.424v.043c0 1.642 1.088 3.011 2.532 3.322a2.956 2.956 0 0 1-1.425.06c.402 1.345 1.567 2.325 2.948 2.352-1.08.91-2.441 1.451-3.92 1.451-.255 0-.506-.016-.752-.047a8.492 8.492 0 0 0 4.837 1.522c5.806 0 8.98-5.164 8.98-9.641 0-.147-.003-.294-.008-.439a6.69 6.69 0 0 0 1.575-1.755 5.968 5.968 0 0 1-1.814.534 3.363 3.363 0 0 0 1.389-1.874M15.002 30C6.716 30 0 23.285 0 15S6.716 0 15.002 0c8.285 0 15.002 6.715 15.002 15s-6.717 15-15.002 15" fill="#C0C0C0"/></g></svg>