<svg width="30" height="30" viewBox="0 0 30 30" xmlns="http://www.w3.org/2000/svg"><title>FCDEDEF1-E626-4611-9019-C094861B4FB9</title><g fill="none" fill-rule="evenodd"><path d="M-1110-1359H330V48h-1440z" fill="#FFF"/><path d="M-1110-399H330V48h-1440z" fill="#FFF" opacity=".599"/><path d="M18.463 7.108h-2.278c-3.227 0-3.151 2.628-3.151 3.021v2.146h-1.497V14.9h1.497v7.206h3.075V14.9h2.063s.193-1.258.287-2.635h-2.338V10.47c0-.268.335-.629.667-.629h1.675V7.108zM15 29.998c-8.284 0-15-6.715-15-14.999S6.716 0 15 0c8.284 0 15 6.715 15 14.999s-6.716 14.999-15 14.999z" fill="#C0C0C0"/></g></svg>